<?xml version="1.0" standalone="no"?>
<!DOCTYPE svg PUBLIC "-//W3C//DTD SVG 20010904//EN"
 "http://www.w3.org/TR/2001/REC-SVG-20010904/DTD/svg10.dtd">
<svg version="1.0" xmlns="http://www.w3.org/2000/svg"
 width="512.000000pt" height="512.000000pt" viewBox="0 0 512.000000 512.000000"
 preserveAspectRatio="xMidYMid meet">
<metadata>
Created by potrace 1.11, written by Peter Selinger 2001-2013
</metadata>
<g transform="translate(0.000000,512.000000) scale(0.100000,-0.100000)"
fill="#000000" stroke="none">
<path d="M0 2560 l0 -2560 2560 0 2560 0 0 2560 0 2560 -2560 0 -2560 0 0
-2560z m1907 368 c-3 -1164 -3 -1184 -24 -1268 -88 -353 -275 -564 -588 -663
-123 -39 -226 -50 -403 -45 -132 5 -171 10 -247 32 -199 59 -366 164 -470 295
l-43 54 178 129 c98 70 180 128 182 128 3 0 19 -20 36 -44 42 -58 137 -121
226 -148 100 -31 262 -31 361 -1 127 40 217 115 279 232 75 143 70 54 73 1334
l4 1147 220 0 220 0 -4 -1182z m1946 1140 c15 -43 1119 -3038 1132 -3070 7
-17 -8 -18 -232 -18 l-240 0 -115 338 -116 337 -633 3 -634 2 -116 -337 -116
-338 -238 -3 c-223 -2 -237 -1 -233 15 6 22 1139 3095 1145 3106 2 4 89 7 193
7 l188 0 15 -42z"/>
<path d="M3404 2793 l-239 -698 479 -3 c263 -1 481 -1 483 1 4 5 -467 1379
-476 1390 -4 4 -115 -307 -247 -690z"/>
</g>
</svg>
